<?xml version="1.0" encoding="UTF-8"?>
<svg id="Layer_2" data-name="Layer 2" xmlns="http://www.w3.org/2000/svg" viewBox="0 0 612.98 476">
  <defs>
    <style>
      .cls-1 {
        fill: #f59172;
      }
    </style>
  </defs>
  <g id="Layer_1-2" data-name="Layer 1">
    <g>
      <g>
        <path class="cls-1" d="m12.22.12c-.26-.25-.88-.14-.78.54l1.02.52-.24-1.06Z"/>
        <path class="cls-1" d="m10.15,4.62c.48.81,1.33,1.76,2.3,1.28-.97-.82-.55-1-1.71-1.89-.1-.68.37-1.17.75-1.04-.26-.25.26-1.05-.38-1.43-.83.85-.9,1.97-.27,3.16-.24.24-.5,0-.69-.07Z"/>
        <path class="cls-1" d="m6.57,70.81l.13-.42c-.07.11-.11.26-.13.42Z"/>
        <path class="cls-1" d="m5.01,111.85c-.02-.31-.12-.45-.21-.46.06.29.12.53.21.46Z"/>
        <path class="cls-1" d="m3.72,118.84c.04-.15.05-.28.08-.41-.1.16-.15.31-.08.41Z"/>
        <path class="cls-1" d="m6.57,70.81l-.35,1.09c.34.09.27-.56.35-1.09Z"/>
        <path class="cls-1" d="m12.36,13.83c-.04-.23-.13-.43-.25-.6.04.19.07.37.09.56.06.01.1.02.16.04Z"/>
        <path class="cls-1" d="m6.21,52.69v-.33c-.11-.1-.25-.2-.41-.29l.41.62Z"/>
        <path class="cls-1" d="m6.46,38.8c-.05.31.83.45,1.21.58-.36-.19-.52-.43-.58-.7-.17-.01-.37.03-.63.12Z"/>
        <path class="cls-1" d="m8.69,16.83l-.11-.39c.03.1.06.28.11.39Z"/>
        <path class="cls-1" d="m5.75,62.63c-.13.02-.25.07-.32.12.11,0,.22-.04.32-.12Z"/>
        <path class="cls-1" d="m10.15,451.12c-.06-.01-.1,0-.16,0,.09.08.15.1.16,0Z"/>
        <path class="cls-1" d="m6.04,467.28l-.05-.22c-.17-.02-.33-.04-.49-.04l.55.26Z"/>
        <path class="cls-1" d="m2.34,131.65s.01-.03.02-.06c-.09-.34-.08-.15-.02.06Z"/>
        <path class="cls-1" d="m1.46,249.48c.8-1.33,1,2.18,1.88.18-.35.18-1.36-1.84-1.88-.18Z"/>
        <path class="cls-1" d="m12.23,14.19c0,.19,0,.38,0,.57.04-.26.04-.43,0-.57Z"/>
        <path class="cls-1" d="m3.34,249.65h0l.08-.21c-.04.09-.06.13-.09.21Z"/>
        <path class="cls-1" d="m2.34,161.23c.16-.06.28-.17.39-.3-.09,0-.2.08-.39.3Z"/>
        <path class="cls-1" d="m3.97,139.22l-.13.54c.08-.21.12-.39.13-.54Z"/>
        <path class="cls-1" d="m3.4,172.68c-.07.3-.2.39-.08.8.05-.04.08-.07.11-.12-.12-.15-.17-.34-.03-.68Z"/>
        <path class="cls-1" d="m3.24,184.59c.07-.06.12-.14.18-.22-.01-.12-.03-.26-.04-.38l-.14.6Z"/>
        <path class="cls-1" d="m9.23,414.97c-.24.26-.52.43-.78.56.62-.19.87,1.55.78-.56Z"/>
        <path class="cls-1" d="m11.86,13.82c.22.08.33.18.37.37,0-.14-.02-.27-.03-.4-.13-.04-.25-.05-.33.03Z"/>
        <path class="cls-1" d="m10.34,173.27l-.16,1.89c.09-.53.15-1.21.16-1.89Z"/>
        <path class="cls-1" d="m8.51,329.63l.11.43c.02-.17,0-.32-.11-.43Z"/>
        <path class="cls-1" d="m10.23,180.77c-.31.33-.5.69-.62,1.06.07.08.12.17.22.22l.4-1.28Z"/>
        <path class="cls-1" d="m8.43,415.53s0,0,0,0c0,0,0,0,0,0Z"/>
        <path class="cls-1" d="m10.68,427.96c0-1.8-1.14-.83-1.81-1.2-.36-2.15.84-1.01,1.42-1.74-.32-1.34-1.4-2.35-1.37-3.36.19-.08.26-.27.5-.05-.94-1.41-.1-4.21-1.27-5.85.1-.12.2-.19.28-.22-.58.27-1.17.32-1.59.27-.03-.81-.75-1.49,0-1.8-.02.5.29.53.53.76l-.34-.84c1.08-.77.39,1.15,1.2,1.14-.37-1.65-1.3-3.56-1.01-4.83,1.06-.28.4,2.95,1.32,1.25l-.38,1.96c1.66-1.51-.1,1.19,1.68-.2.28-2.58-.58-2.87-.3-5.44-.6-.57-.87.2-1.47-.37-1.1-3.64,2.65-2.9,1.21-5.57-.72-.69-2.06-.94-1.37-2.86l1.21.64c.1-2.49-1.74-1.41-.96-4.02.48.46.42,1.95.56,1.58.93-1.7-.69-1.19-.71-2.49l1.06-.28c-.19-2.65-.99-5.57-1.21-8.5.32.16.66.66.98-.03-.57-3.7.06-7.91.67-11.49l-.93-1.36c0-.32.41-.59.59-.25.34-1.4-.58-.07-.95-.74-.07-.79.52-1.05.8-.55-.79-2.45-1.72-6.99-.75-9.59l.28.5c.36-2.02-1.9-2.27-1.05-4.14l.17.36c.37-4.38-.5-9.21.88-12.56-1.33-.63.58-4.34-1.27-4.61.91-2.5,1.24-1.79,1.85-5.31.08-.94-1.16-1.4-1.35-2.56l.97-.03-1.02-1.58,1.15-.84-.25-1.09c-.06.43-.43.92-.71.86-.44-1.7.66-4.15,1.16-4.2l-.83-4.03c.39.09.52.76.77,1.3-.99-2.15,1.02-.39.11-2.36-.22.26-.58-.14-.77-.19.58-.98.59-3.22.34-4.87l.67.32c.17-2.99-.32-6.3-.3-9.65-.31,1.2-1.46.93-1.58-.06l1.02-.39c-.63-.64-.39,1.03-1.16-.28.12-1.25,1.16-.84,1.49-.12l-.35-1.52c.3-.09.47.27.85.36-.63-.63,1.03-2.63-.08-3.53l.3-.09c0-3.35-.34-4.87-.39-7.6-.88-.05-.69-1.12-1.4-1.94.29-2.01.99-4.23.92-6.65-.43-1.7-.75-.5-1.27-1.26.8-.12.74-2.54,1.31-1.28-.12-2.9-.15-3.71-.79-7.38-.33.4-.47.84-.75.61-.13-.67.34-1.51.73-1.42l.08.18c-1.19-4.13,2.37-9.5.71-12.79l.08.18-.85-3.41c.15-1.56.6.94,1.1-.21-1.32-3.68.23-5.8-.64-8.83,2.38-2.32-.11-8.3,1.42-11.45l-.56.18c-.54-.82.33-.98.46-1.59-.43.08-.51.88-.81.37-.63-6.92.95-14.26,1.52-21.35.18-2.59-2.87-1.5-1.51-4.76l1.03.94c-1.2-5.25.15-10.7-.83-15.83.23.31.55.32.53.82.77-1.07.09-4-.52-4.03.08-.8.56-.18.88-.67.46-1.08-.92-2.74-.17-3.3.12-.1.24.31.3.51-.35-.71.14-3.29-.74-2.63.44-1.92-.34-3.68.2-5.21-.96-1.01.51-3.28-.86-3.62,1.42.16,1.19-3.35.54-4.58.42.41.46-1.05,1.05-.56,0-1.39-.24-2.66-.97-2.43,1.74-2.53-1.28-5.16.92-6.56-.69-4.13-1.15-7.95-1.42-11.67,1.41.16.07,4.1,1.56,3.97-.52-3.53-1.71-5.57-1.31-9.06.21-.9.61.52.84.83-.53-3.52.26-6.79-.45-9.93.13.01.27.35.37.67-.03-.62.24-1.43-.41-1.37l.16.6c-.95.97-1.9-2.48-2.39-2.6,1.82,1.08.52-3.08,2.82-1.37-.11-.41-.41-.92-.84-.84.14-.6.39-.79.87-.17-.31-2.21-1.01-1.44-.95-3.44.31.01.42.42.79.63-.59-1.02-1.17-2.05-.88-3.74.19.11.43-.09.42.42-.04-2.9-1.52-4.98-.87-8.15,1.33.97.47-1.07,1.64-1.22l-.31-1.72-.58.67c.05-1.5-.77-2.84-.36-4.12l.46,1.12-.16-2.81-.48,1.58c-.57-1.53-1.48.13-1.11-1.86.11.41.05-1.5.76-2.27h0c-.36-.74-.73-1.52-.42-2.62.38-.28,1.29.26,1.54.08-.96-.75-.19-3.52-1.21-4.47.24.31.85.34.98.25l-.78-.63c.27-.69.4-.79.88-.66.19-2.09-1.5.63-.8-1.84.06.2.18.11.29.51.39-2.48-.39-4.82.05-7.1,1.19-.65.24,2.01,1.25,1.26-.14-3.3-1.25-6.87-.89-10.05l-.15.59c-1.65-.48.88-2.36.14-3.99.11.4.91.54.73.43.32-2.18-.29-4.48-.73-7.81l.42.42c.41-1.28.31-3.39.54-4.77-.42-.42-.33-1.22-.96-.75,2.54-4.23-1.1-8.22,1.04-11.97,0,.46.34,1.1.35.73l-.3-3.25c-.73.24-.45.41-1.03,1.08-.42-.42-.72-1.35-.7-2.15.44,1.47,1.16.02,1.59-.6-.22.1-.46-.12-.69-.08,1.34-1.66-1.45-.33-.51-2.61l.38.13c-.17-.87-.65-1.68-.51-2.61.85-.36.36.93,1.05,1.01-.01-1.31-1.51-2.63-.64-3.8.22.56.2,1.36.41,1.93,1.02-1.26.78-1.42.96-2.38l-.02.09.51-2.21-.28.56c-2.14-1.71-.3-3.35-1.67-5.61,1.29,2.19.77.38,1.72.57.28-.56.6-1.41.86-1.15-.74-1.07.65-1.73-.42-3.23.31-.06.06-1.12.82-.86-.2-1.37-.54.3-.92.18-.99-2.13,1.42-4.88.09-7.94-.51-2.61-1.52-3.13-1.96-5.55.51-.8,1.09.7,1.09.7.49-1.3.44-2.29.13-3.53.26.26.49,0,.85-.36-.05-.99-1.09-.7-.6-1.99.33.24.87.54,1.2,1.03-.24-1.18-.78-2.35-1.01-3.57.54-.3.78.76,1.12,1.19-.2-1.37-.37-3.54-1.2-3.99l-.33.86c-.02-.5.73-.23.87.14.62,1.19-.35,1.67-.66,1.73l-.17-.87c-1.82.83.18,3.47.02,5.2l-1.28-.77,1.02,1.82c-.35.37-1.09.6-1.25-.26-.68,1.22.43,1.12-.32,2.16-.12.11-.18.06-.22-.05l.35,1.23c-.27-.25-.93.17-.71-.57-.82,2.16.86,3.55-.15,4.34l-.07-.18c.34,3.04.95.32,2,2.63l-2.41,1.45.95.33c-.04.31-.14.93-.52.8.62,1.18.42-.19,1.02.51-.92,1.48.28,4.16-1.25,4.45.71.56.6-1.42,1.06.2-1.65.41.23,1.86-.57,3.21-.83-.45-.35-1.74-1.14-.38,1.41.87-.39,2.67-.15,3.83,1.14.09.4,2.53.72,4.49-.38-.13-.73,3.64-1.2,5.44l-.19-.06c1.14.38.87,2.24,1.07,3.61-.69-.07-.95-.32-1.24-1.07l-.03,1.28c.36.31.54.72.65,1.55l-.85-.35c0,1.7.91,3.45.28,5.62.8.14,2.28-1.68,2.75.65-.44.07-1.18.14-1.34-.47.05.2.34.72.15,1.11l-.71-.94c-.35.99.6.54.51,1.33-.62-.03-.46.58-.94.45-.05-.2.27-.69.04-1-.13.89-.53,1.97-1.01,2.32.35-.07.83.02.9.68,0,1.7-.76.56-1.1,1.54.42.42-.05,1.5.87,1.55-.02.5-.45.58-.71.76.38.89,0,4.11,1.02,3.15l.07-.22s.02.09.04.14h0s0,0,0,0c.84,2.91-.68,5.98-.36,8.85h-.31c.31,1.7.11,3.79.74,5.03-.01.51-.6,1.18-.96.95.2,1.31.54,1.47-.01,3.34-.51-1.33-.49.44-.36-1.35-.31,1.69-.81,2.06,0,3.9-.78-.64-1.03,1.25-.81,2.07l.59-1.18c.1.91,0,1.7-.08,2.5l-1.03-.46c-1.35,3.44,2.02,6.31-.17,8.91.71.93.56-1.87,1.39-1.03-.18,1.59-1.71,3.22-1.73,3.72-.63,2.18,1.48,2.08,1.03,4.36.38-.28,1.38-.54,1.69,1.18-.17,1.6-1.6,1.93-1.88.92-.02-.38.1-.57.23-.55-.12-.52-.27-1.2-.69-.58l.37.22c-.4.78-.41,2.98-1.01,2.46.33,1.22.6.53.81-.36-.58,2.04-.09,3.2-.49,5.3.21-.33.65-.63.64-.3-.52,3.09.68,1.38.8,3.48-.59,1.18-1.34-.45-.91,1.67-.41,1.28-.99.25-1.29-.27.68,1.94-.54,3.58-.69,4.68l-.28-1.02c.17.61.15,1.11.14,1.61l.75-.56c-.14.59-.15,1.1-.46,1.08.48.62,1.25-.44,1.89.78-.39.79.36,2.42-.63,2.68.38-2.49-1,.26-1.11-1.86.11.41.1.91-.05,1.5-.11.09-.2-.09-.26-.25-.93,2.37,1.09,1.12,1.02,3.59-.55-.32-1.07.55-.96.96.03-1,.94-.46,1.35.46-.46,1.58.29,1.73.22,2.56l.22-.94c.55.33.46,1.12.61,2.23-.43.09-.28-1.01-.48-.62.95,1.25-1.07,2.76-.44,4.48-.39.79-1.05.06-1.32.75.68,1.93-.8,2.06-.24,4.09.76-.57.58-.67,1.28.76l-.47-3.32,1.05,2.15c.03-1-.44-2.12-.3-2.72.59,1.02.41.92,1.04.45-1.14,1.35.61,2.73-.17,4.29l-1.85-.08c-.86,2.37.88,4.24.36,7.32l.34-.99c.73.43.07,1.91.35,2.91-.62-.1-.85.52-1.24.94.46-.04-.08,2.26,1.15,2.56l-.84,1.37c-.37,2.49,1.72,2.87,1.47,5.27-.66-.73-1.12.35-1.57-1.26-.02.8-.14,1.52.28,1.54-.4.46.8,2.23.2,2.96.27.34.91.46.85,1.36-.13.1-.31,0-.31,0,.3,0,.4,1.41,1.09.64-1.96,2.44.05,6.89-1.64,9.02.19,1.75.36,3.86.38,5.44-.18-.1-.31,0-.24-.31-.6,2.18,1.76,1.37,1.08,3.85-1.02,1.26-.52-1.33-.91-.54-2.04.32.24,3.01-.97,4.67l-.11-.41c-.71,1.27.73,3.13.56,5.23,0,0-.18-.1-.31-.02,1.02,1.44,1.33,4.16,1.6,6.17-.79-.64-.41-.92-1.23-.55.11.9,1.3-.25,1.51,1.55-.44.58-.84,1.88-1.7,2.04l-.03-1.7c-1.13.86.02,2.2-.19,3.09l-.49-.12c.13,2.61,1.36,2.65,1.25,5.45l.37-.29c1.2,1.54-.7,1.28.19,2.81l-1.24.45c.29,1.01,1.16,3.55,1.38,5.36-.91-1.03-1.36-3.16-1.89-4.47-.02,1,.06,3.4.66,3.93-.12-.4-.41-.91-.22-1.31.96,1.24,1.42,2.85,1.38,4.85-2.39-.37-.66,5.19-2.52,6.62.86,3.53-.43,6.99-.31,11.1,1.88-1.44.04,1.2,1.96.96.12.96.08,1.32-.04,1.41l-1.16,2.89c-.56.68-.42-.91-.85-.83-.16,2.09-.82.87-1.34,2.26.69-.28.98.73.71,1.93l.9-1.68c1,2.93-1.63,2.52-.63,5.48l-.6-.94c.34,1.52-.05,5.59,1.49,7.08-.22.27-.75.62-.88-.05-.24,3.62,1.61,8.06.65,10.87l-.47-.28c.13.68.88,1.18.4,2.02-.19-.04-.47-.27-.5.04.16.36.81,1.8.54,2.69l-.52-.77c-.63,3.53,1.27,5.42,1.58,8.38-1.38-.01-1.84,2.77-2.06,4.15l-.2-.05c-.17,4.11,1.14,6.99,1.68,10.79-1.5,2.36-.63,8.01-1.47,11.8.25-.58,1.07.09,1.21.77-.28.89.96,2.46-.31,2.32l.02-.32c-1.24.67-.91,2.5-.94,3.94l1.66.23c-2.4,3.75.91,9.8-1.24,11.85.42.9.42,2.02.83,2.91l-.89-.05c-.22,2.5-.33,3.75-.11,6.84l-.64-.63c-.05,1.74,2.57,2.19,2.62,3.8l-1.32.49c.03,3.04-1.11,6.13.11,9.13-.19-.05-.58-.14-.63-.63-.03,1.43-.86,5.55.95,5.02-1.18.04-.1,3.14.44,4.78l-.88-.25c1.12,1.38,1.43,1.42,1.75,3.36-.11.46-.7.41-.48-.2-.45,1.53.83,1.19.38,3.04l-.56-.69c-.06,1.57.24,1.45.9,2.31.36.99-.2,2.99-.99,3.22.48.21,1.13,1.07.91,1.99-.3.13-.48-.21-.58-.38-.58,2.64,1.05,3.9.21,5.72-.29.04-.43.16-.52.31,0-2.09.03-3.77.1-3.62-.81,0-.93,1.7-2.06.36.62,1.35,1.96,3.66,1.6,5.31-.08.08-.15.16-.28.22l-.09-.17c-.08.38,0,.72.14,1.04-.13.53-.22.86-.23,1.37-.66.2-.34,1.94-.37,2.78.88-.08.75,1.03,1.47-.01-.06.13-.11-.16-.15-.72-.03-.13-.04-.28-.09-.36.02.02.05.04.08.06-.02-.55-.05-1.27-.08-2.09.45.66.84,1.35.36,2.29.57.43,1.16.9,1.43,1.16-1.22,1.16-1.86,3.39-2.62,3.71.52,2.57.38,6.05,2.05,7.65.22.73-.47.85-.72,1.12-.17-.42-.15-.92-.39-1.15.44,1.46.21,4.33,1.36,4.66-.5,1.85-1.08-1.02-.86,1.51l-.36-.34c-1.79,5,3.05,8.06.75,13.61.14-.38.21-.58.4-.66-.96,6.31,1.13,12.95-.43,19.18-.31,1.77.43,1.95,1.01,3.02l-.94.4,1.12,1.83c.84,2.6-2.25,4.56-.69,7.84l.63-.44c-.1,1.19.43,3.75-.3,3.57.12.12.67.38.34.85l-.49.04.89,2.9c-.32,2.27-1.97-.32-2.02,2.98.21,1.22,1.5,3.47,1.82,3,.02-.5.29-1.27.78-1.32l.28,1.12c1.46.18,2.97,1.01,3.95-1.76l-.92-1.9.7-.63.07,1.61c.65-.93.05-1.5-.36-2.14.37-.16.63-.43.77-.82l-1.42-1.86c.57-.24,1.15.83,1.44-.44-.66-.87-1.27.87-1.71-.59.65-.93,1.19-.67.61-1.74.37-.16.62.07.79.49-.47-.95-.23-2.53-1.01-3.02.8-.97-.26-3.23,1.12-3.16-.34-.3-1.11-1.67-1.18-2.55,1.68,1.58.05-3.3,1.82-2.9-1.51-1.17-.73-4.29-1.59-6.39.12.12.36.34.29.53.11-1.19.55-1.54.82-2.31-1.23-.14-1.53-1.98-2.3-2.97,1.17-1.47,1.45.86,2.59.39-.99.09-1.03-2.51-1.85-2.01.72-1.12.34-.96,1.35-1.55-1.54-.17-.27-1.03-1.23-1.94.74-1.62,1.43-.43.94-2.2.46-.85,1.02.72,1.02.72Zm-3.11-42.03s.02,0,.02,0c.02.36.04.67.06.87-.02-.18-.04-.43-.08-.87Zm-.05-3.54c-.03.43-.03.97-.02,1.53-.3.13-.62,0-.6-.36.21.19.37-.64.62-1.17Zm-6.03,7.53c-.13-.56.04-.75.22-.83.02.26.05.57.11.98.03.02.07.05.11.07-.17-.05-.33-.11-.44-.22Z"/>
        <path class="cls-1" d="m2.65,390.92c.02.08.06.13.07.23.08-.12.14-.22.19-.34-.1-.07-.19-.14-.28-.2,0,.1.01.21.02.3Z"/>
        <path class="cls-1" d="m6.72,70.31l-.02.07c.04-.06.07-.12.13-.15-.04.05-.07.05-.11.08Z"/>
        <polygon class="cls-1" points="8.96 333.56 8.73 333.57 8.93 333.88 8.96 333.56"/>
        <path class="cls-1" d="m10.27,50.93c.08-.03.16-.11.23-.25-.06,0-.14.12-.23.25Z"/>
        <path class="cls-1" d="m10.72,42.52l.35-1.18c-.19.51-.29.88-.35,1.18Z"/>
        <path class="cls-1" d="m11.34,36.07c-.15-.09-.27-.11-.37-.14,0,0,0,.01,0,.01l.38.13Z"/>
        <path class="cls-1" d="m9.88,138.89c0,.09.01.17.03.25.16.59.1.19-.03-.25Z"/>
        <path class="cls-1" d="m8.44,108.25c.15.33.3.65.39.99.08-.54.11-.97-.39-.99Z"/>
        <path class="cls-1" d="m10.36,173.06s0,0-.02,0c0,.07,0,.14,0,.21l.02-.21Z"/>
        <path class="cls-1" d="m8.79,110.67c.19-.54.16-1,.05-1.42-.07.45-.17.97-.05,1.42Z"/>
        <path class="cls-1" d="m12.62,8.07l.05-.31c-.06,0-.11-.02-.14-.04l.09.35Z"/>
        <path class="cls-1" d="m12.53,7.72l-.09-.35c0,.16,0,.3.09.35Z"/>
        <path class="cls-1" d="m12.24,6.63l.2.74c.01-.25.05-.56-.2-.74Z"/>
        <path class="cls-1" d="m11.94,16.61l.32.11c-.06-.06-.17-.09-.32-.11Z"/>
        <path class="cls-1" d="m11.95,19.22c.09-.62.73-1.53.56-2.41l-.25-.09c.46.42-.83,1.89-.31,2.5Z"/>
        <path class="cls-1" d="m7.65,29.95l.32-2.17c-.35.37-.83.86-.88-.14-1.1,2.72.78-.54.55,2.31Z"/>
        <path class="cls-1" d="m6.96,36.69c-.12-1.18-.49,0-.68-.07.29.75.36.93.68.07Z"/>
        <path class="cls-1" d="m5.62,85.55l-.8-.14c.09.91.31.02.8.14Z"/>
        <polygon class="cls-1" points="9.55 94.99 10.07 94.12 9.34 93.69 9.55 94.99"/>
        <polygon class="cls-1" points="3.71 100.37 3.61 99.97 3.87 101.49 3.71 100.37"/>
        <path class="cls-1" d="m2.49,182.46l.99-.26c-.17-.61-1.28-.76-.99.26Z"/>
        <path class="cls-1" d="m3.07,217.91c-.5.38-.82,1.37-.35,1.99.08-.8.47-1.59.35-1.99Z"/>
        <polygon class="cls-1" points="1.01 324.19 .68 323.47 .96 324.82 1.01 324.19"/>
      </g>
      <g>
        <path class="cls-1" d="m612.83,470.35c.32-.26.13-.85-.75-.73l-.61,1.01,1.36-.28Z"/>
        <path class="cls-1" d="m606.89,468.56c-1.03.5-2.21,1.37-1.53,2.28,1.01-.97,1.27-.58,2.35-1.74.88-.13,1.54.3,1.4.67.31-.26,1.37.2,1.84-.43-1.15-.76-2.61-.78-4.11-.12-.33-.22-.02-.48.06-.67Z"/>
        <path class="cls-1" d="m520.9,467.94l.56.11c-.15-.06-.34-.1-.56-.11Z"/>
        <path class="cls-1" d="m467.62,467.88c.41-.03.57-.13.59-.22-.38.07-.68.13-.59.22Z"/>
        <path class="cls-1" d="m458.52,466.85c.2.02.36.04.54.06-.21-.09-.41-.14-.54-.06Z"/>
        <path class="cls-1" d="m520.9,467.94l-1.43-.3c-.1.33.73.24,1.43.3Z"/>
        <path class="cls-1" d="m595.07,471.12c.3-.05.54-.15.77-.27-.24.05-.48.09-.72.11-.01.05-.02.1-.04.16Z"/>
        <path class="cls-1" d="m544.37,466.89h.43c.13-.12.24-.26.36-.42l-.79.42Z"/>
        <path class="cls-1" d="m562.39,466.54c-.41-.03-.54.82-.69,1.19.23-.35.53-.52.88-.59,0-.16-.05-.35-.19-.6Z"/>
        <path class="cls-1" d="m590.99,467.71l.51-.12c-.13.04-.35.08-.51.12Z"/>
        <path class="cls-1" d="m531.47,466.84c-.03-.13-.1-.24-.17-.3,0,.11.07.21.17.3Z"/>
        <path class="cls-1" d="m27.37,475.09c.01-.06,0-.1,0-.15-.11.09-.14.15,0,.15Z"/>
        <path class="cls-1" d="m6.49,470.82l.29-.04c.03-.16.06-.32.06-.48l-.35.52Z"/>
        <path class="cls-1" d="m441.86,465.89s.04,0,.07.02c.44-.1.19-.08-.07-.02Z"/>
        <path class="cls-1" d="m289.07,467.42c1.73.75-2.81.99-.2,1.82-.24-.33,2.36-1.34.2-1.82Z"/>
        <path class="cls-1" d="m594.6,471.01c-.24.01-.49.02-.74.02.34.02.56.02.74-.02Z"/>
        <path class="cls-1" d="m288.86,469.25h0s.27.09.27.09c-.11-.04-.17-.06-.27-.09Z"/>
        <path class="cls-1" d="m403.52,466.69c.08.15.23.26.39.37-.01-.09-.1-.19-.39-.37Z"/>
        <path class="cls-1" d="m432.1,467.69l-.71-.11c.28.08.51.1.71.11Z"/>
        <path class="cls-1" d="m388.69,467.99c-.38-.06-.52-.18-1.04-.06.05.04.1.07.16.1.19-.12.44-.17.88-.04Z"/>
        <path class="cls-1" d="m373.25,468.09c.08.06.19.11.29.17.15-.02.33-.03.49-.05l-.77-.12Z"/>
        <path class="cls-1" d="m74.31,474.79c-.34-.24-.55-.5-.71-.77.24.61-2.03.82.71.77Z"/>
        <path class="cls-1" d="m595.05,470.64c-.09.22-.22.32-.45.37.18-.01.35-.03.51-.05.04-.13.05-.25-.06-.32Z"/>
        <path class="cls-1" d="m388.11,474.71l-2.45-.11c.69.08,1.58.11,2.45.11Z"/>
        <path class="cls-1" d="m185.1,474.68l-.56.1c.22.02.42,0,.56-.1Z"/>
        <path class="cls-1" d="m378.37,474.77c-.44-.3-.91-.47-1.39-.58-.1.07-.22.12-.28.22l1.67.36Z"/>
        <path class="cls-1" d="m73.59,474.01s0,0,0,0c0,0,0,0,0,0Z"/>
        <path class="cls-1" d="m57.43,476c2.34.03,1.1-1.09,1.6-1.73,2.79-.31,1.29.83,2.24,1.4,1.74-.29,3.08-1.32,4.38-1.27.1.18.35.25.05.48,1.84-.89,5.47-.03,7.62-1.15.16.1.24.19.28.28-.35-.56-.4-1.13-.33-1.54,1.05-.02,1.95-.7,2.34.03-.64-.02-.7.27-1,.5l1.1-.32c.99,1.05-1.5.36-1.5,1.14,2.14-.34,4.64-1.2,6.28-.9.34,1.03-3.84.34-1.65,1.26l-2.54-.4c1.94,1.63-1.54-.12.24,1.62,3.34.3,3.74-.52,7.07-.21.75-.57-.25-.85.5-1.42,4.74-1.02,3.73,2.59,7.21,1.22.9-.68,1.25-1.99,3.73-1.29l-.85,1.16c3.24.12,1.85-1.67,5.24-.88-.6.46-2.54.38-2.05.52,2.19.92,1.55-.66,3.24-.66l.35,1.03c3.44-.16,7.24-.9,11.05-1.08-.21.31-.87.63.03.94,4.81-.51,10.27.13,14.91.74l1.77-.89c.41.01.77.4.32.57,1.81.34.09-.56.96-.91,1.03-.06,1.36.51.71.78,3.19-.75,9.09-1.62,12.45-.67l-.66.26c2.62.36,2.95-1.82,5.38-.99l-.47.16c5.68.38,11.96-.43,16.3.91.82-1.28,5.63.56,5.99-1.22,3.25.88,2.32,1.2,6.89,1.79,1.22.08,1.82-1.12,3.33-1.3l.04.93,2.05-.98,1.09,1.11,1.42-.24c-.56-.05-1.2-.42-1.11-.69,2.21-.43,5.39.64,5.45,1.12l5.23-.79c-.12.38-.99.51-1.68.75,2.79-.96.51.98,3.07.11-.34-.21.18-.56.24-.74,1.28.56,4.18.56,6.33.32l-.41.64c3.88.16,8.18-.33,12.53-.32-1.56-.3-1.21-1.41.07-1.52l.51.99c.82-.61-1.33-.37.36-1.12,1.63.11,1.1,1.12.16,1.44l1.98-.35c.12.29-.35.45-.47.83.81-.61,3.42.98,4.58-.08l.11.29c4.35,0,6.33-.34,9.87-.4.07-.85,1.45-.67,2.51-1.36,2.61.26,5.5.92,8.64.84,2.21-.43.64-.72,1.63-1.23.16.77,3.3.69,1.67,1.25,3.77-.14,4.81-.17,9.58-.81-.52-.32-1.1-.45-.8-.72.86-.13,1.97.32,1.85.69l-.23.08c5.35-1.18,12.35,2.22,16.61.59l-.24.08,4.41-.86c2.03.13-1.22.59.29,1.06,4.76-1.31,7.53.16,11.45-.72,3.05,2.28,10.78-.2,14.88,1.24l-.24-.54c1.06-.53,1.28.3,2.06.42-.11-.42-1.15-.48-.49-.78,8.97-.68,18.53.7,27.73,1.14,3.37.13,1.9-2.8,6.15-1.53l-1.2,1.01c6.79-1.23,13.89-.03,20.53-1.09-.4.23-.4.53-1.05.53,1.41.72,5.19,0,5.21-.59,1.04.06.24.53.88.83,1.41.42,3.53-.95,4.28-.23.13.12-.39.24-.65.3.92-.36,4.28.06,3.39-.77,2.5.39,4.77-.4,6.77.08,1.29-.95,4.27.43,4.68-.9-.17,1.37,4.38,1.08,5.96.42-.53.42,1.37.42.76,1,1.8-.03,3.45-.3,3.13-1,3.33,1.62,6.66-1.36,8.54.72,5.34-.77,10.29-1.3,15.1-1.66-.16,1.37-5.32.17-5.1,1.6,4.56-.59,7.19-1.78,11.71-1.49,1.17.18-.66.6-1.06.83,4.56-.59,8.82.06,12.87-.72-.01.13-.45.27-.86.38.8-.05,1.86.19,1.77-.43l-.78.17c-1.28-.89,3.16-1.91,3.3-2.38-1.34,1.79,4.01.42,1.87,2.68.53-.12,1.18-.42,1.06-.83.78.11,1.03.35.24.83,2.86-.36,1.84-1.01,4.43-1.02,0,.3-.53.42-.8.78,1.31-.6,2.62-1.19,4.82-.96-.13.18.13.42-.53.42,3.77-.12,6.41-1.61,10.54-1.08-1.21,1.32,1.41.42,1.64,1.55l2.22-.36-.9-.54c1.95,0,3.66-.84,5.34-.48l-1.44.48,3.65-.25-2.07-.41c1.96-.6-.22-1.43,2.37-1.14-.53.12,1.95,0,2.97.65h0c.96-.37,1.95-.75,3.39-.49.38.36-.29,1.25-.04,1.49.94-.95,4.56-.3,5.75-1.32-.4.24-.41.83-.28.95l.79-.78c.9.24,1.04.36.89.83,2.71.12-.87-1.43,2.35-.84-.25.06-.13.18-.66.3,3.24.29,6.24-.54,9.21-.19.89,1.13-2.59.3-1.58,1.25,4.28-.24,8.86-1.44,13-1.22l-.77-.12c.56-1.61,3.09.76,5.18-.01-.51.12-.66.9-.53.72,2.84.23,5.8-.45,10.09-1l-.53.42c1.68.35,4.41.17,6.22.34.53-.42,1.57-.36.93-.95,5.59,2.29,10.61-1.36,15.58.54-.59.01-1.4.38-.93.37l4.21-.43c-.34-.7-.56-.42-1.45-.95.53-.42,1.71-.75,2.76-.77-1.89.48.03,1.12.85,1.5-.14-.21.14-.45.07-.67,2.21,1.22.35-1.41,3.37-.61l-.16.37c1.12-.2,2.15-.7,3.37-.6.51.8-1.19.39-1.26,1.06,1.7-.06,3.34-1.57,4.89-.78-.72.23-1.76.25-2.48.48,1.69.93,1.88.69,3.13.83l-.12-.02,2.89.4-.74-.25c2.11-2.13,4.33-.43,7.19-1.85-2.77,1.34-.45.76-.66,1.68.74.25,1.85.52,1.54.78,1.35-.75,2.27.56,4.17-.54.09.29,1.45.01,1.15.76,1.76-.25-.42-.51-.28-.88,2.71-1.04,6.4,1.15,10.3-.28,3.36-.61,3.98-1.61,7.1-2.15,1.06.46-.85,1.09-.85,1.09,1.71.41,2.99.32,4.59-.04-.32.26.02.48.51.8,1.29-.09.85-1.09,2.55-.67-.29.33-.66.86-1.27,1.2,1.51-.29,3.01-.86,4.58-1.14.42.51-.94.79-1.49,1.13,1.76-.25,4.57-.52,5.11-1.34l-1.14-.28c.64-.05.34.7-.13.85-1.51.66-2.19-.26-2.28-.55l1.12-.2c-1.17-1.72-4.49.33-6.75.26l.92-1.27-2.3,1.07c-.5-.32-.84-1.02.27-1.22-1.62-.6-1.42.46-2.82-.21-.15-.11-.09-.17.06-.22l-1.57.39c.31-.27-.27-.89.7-.72-2.84-.69-4.56,1-5.63.06l.24-.08c-3.92.47-.37.93-3.3,2.05l-2.01-2.26-.38.93c-.41-.03-1.21-.09-1.06-.46-1.5.65.26.4-.61,1.01-1.96-.82-5.38.45-5.83-1.01-.69.71,1.87.52-.21,1.03-.61-1.58-2.41.3-4.2-.41.54-.82,2.23-.41.44-1.12-1.06,1.39-3.47-.27-4.98.02-.06,1.1-3.26.49-5.78.89.16-.37-4.75-.55-7.11-.93l.07-.18c-.44,1.12-2.87.93-4.63,1.18.06-.67.38-.93,1.33-1.24l-1.66.02c-.39.36-.9.55-1.98.69l.41-.84c-2.21.07-4.43,1.03-7.28.5-.15.78,2.28,2.14-.72,2.68-.12-.42-.23-1.13.55-1.31-.26.06-.91.36-1.43.18l1.19-.72c-1.3-.3-.67.6-1.7.54.01-.6-.77-.42-.63-.9.26-.06.9.24,1.3,0-1.17-.1-2.58-.44-3.05-.88.11.34,0,.81-.84.89-2.21.07-.76-.71-2.05-1.01-.53.42-1.94,0-1.97.9-.65,0-.77-.41-1.02-.65-1.14.41-5.33.16-4.04,1.1l.29.06c-.05.02-.12.02-.19.04h0s0,0,0,0c-3.73.93-7.78-.43-11.49-.01v-.3c-2.21.36-4.93.25-6.5.91-.66,0-1.55-.53-1.28-.89-1.69.24-1.88.58-4.33.11,1.7-.54-.59-.46,1.74-.4-2.2-.24-2.71-.71-5.06.13.8-.77-1.67-.95-2.71-.71l1.55.53c-1.18.12-2.2.06-3.25,0l.56-1.01c-4.52-1.19-8.1,2.16-11.55.14-1.19.72,2.45.47,1.39,1.31-2.07-.12-4.24-1.54-4.89-1.54-2.84-.53-2.64,1.5-5.61,1.14.38.36.75,1.31-1.47,1.67-2.08-.11-2.56-1.48-1.26-1.78.5-.03.74.08.72.2.67-.14,1.55-.3.72-.68l-.27.36c-1.03-.36-3.88-.29-3.22-.89-1.56.36-.67.6.5.77-2.66-.5-4.16.02-6.9-.31.44.19.84.61.41.61-4.02-.41-1.76.7-4.48.87-1.55-.54.54-1.31-2.19-.83-1.68-.36-.36-.95.3-1.25-2.49.71-4.67-.42-6.09-.53l1.31-.3c-.78.18-1.43.18-2.08.18l.76.71c-.77-.12-1.43-.12-1.41-.42-.79.48.62,1.19-.95,1.85-1.03-.36-3.13.42-3.49-.53,3.24.3-.36-.96,2.37-1.13-.53.12-1.17.12-1.95,0-.12-.11.11-.2.32-.25-3.1-.83-1.41,1.09-4.62,1.09.4-.54-.75-1.01-1.27-.89,1.29,0,.63.89-.56,1.31-2.06-.4-2.23.33-3.31.29l1.23.19c-.41.54-1.44.48-2.88.66-.13-.42,1.3-.3.79-.48-1.59.96-3.61-.95-5.82-.3-1.03-.36-.11-1.01-1.01-1.25-2.48.72-2.7-.72-5.31-.12.76.72.89.54-.95,1.26l4.3-.54-2.75,1.07c1.3,0,2.74-.47,3.51-.36-1.31.6-1.18.42-.55,1.01-1.78-1.07-3.52.66-5.57-.06l.05-1.79c-3.09-.78-5.48.96-9.49.53l1.29.3c-.53.71-2.47.12-3.77.41.12-.6-.7-.81-1.25-1.18.07.44-2.93-.02-3.29,1.18l-1.79-.77c-3.24-.3-3.68,1.73-6.79,1.55.93-.66-.48-1.07,1.6-1.55-1.04,0-1.97-.1-1.99.31-.61-.37-2.87.83-3.83.26-.44.27-.58.89-1.74.85-.13-.12,0-.29,0-.29,0,.3-1.82.41-.8,1.07-3.21-1.85-8.94.19-11.74-1.4-2.27.21-4.99.42-7.05.48.13-.18,0-.3.39-.24-2.84-.54-1.73,1.73-4.97,1.12-1.66-.96,1.71-.53.68-.89-.46-1.96-3.9.29-6.08-.84l.53-.12c-1.66-.66-4.05.77-6.76.64,0,0,.13-.18.01-.3-1.85,1.02-5.36,1.36-7.97,1.66.81-.77,1.18-.41.68-1.19-1.17.12.35,1.25-1.99,1.48-.76-.42-2.45-.78-2.68-1.61l2.2-.06c-1.13-1.07-2.85.05-4.01-.13l.15-.47c-3.38.17-3.42,1.36-7.05,1.29l.38.36c-1.98,1.19-1.67-.65-3.64.23l-.6-1.19c-1.31.29-4.58,1.18-6.93,1.41,1.33-.89,4.07-1.36,5.77-1.89-1.3,0-4.41.11-5.08.7.52-.12,1.18-.41,1.7-.23-1.59.95-3.68,1.42-6.27,1.41.45-2.32-6.74-.55-8.63-2.34-4.57.87-9.08-.33-14.4-.17,1.9,1.8-1.56.06-1.22,1.91-1.24.12-1.71.09-1.83-.03l-3.77-1.09c-.89-.54,1.18-.41,1.06-.83-2.72-.13-1.14-.78-2.94-1.26.37.66-.94.95-2.49.71l2.18.85c-3.79,1-3.29-1.54-7.11-.55l1.21-.59c-1.96.35-7.25.02-9.17,1.51-.35-.21-.81-.72.06-.85-4.7-.21-10.45,1.61-14.1.71l.35-.45c-.88.13-1.52.86-2.62.4.06-.19.35-.45-.05-.48-.46.16-2.32.8-3.49.54l.99-.51c-4.58-.58-7.02,1.26-10.86,1.58,0-1.33-3.6-1.75-5.4-1.97l.06-.19c-5.33-.15-9.05,1.12-13.99,1.66-3.07-1.44-10.38-.58-15.31-1.39.75.24-.12,1.04-1,1.17-1.16-.27-3.19.93-3.01-.29l.41.02c-.87-1.2-3.25-.87-5.1-.9l-.3,1.6c-4.86-2.32-12.71.87-15.36-1.21-1.17.4-2.62.4-3.78.8l.06-.86c-3.24-.22-4.86-.32-8.87-.11l.82-.61c-2.26-.05-2.85,2.48-4.94,2.53l-.63-1.28c-3.95.03-7.94-1.1-11.84.06.06-.19.18-.56.82-.61-1.86-.03-7.19-.87-6.51.89-.05-1.14-4.07-.11-6.2.39l.33-.84c-1.8,1.08-1.86,1.37-4.37,1.67-.6-.11-.52-.67.27-.46-1.98-.44-1.55.8-3.95.35l.9-.54c-2.04-.06-1.88.22-3,.85-1.28.34-3.87-.21-4.17-.98-.28.47-1.39,1.09-2.6.87-.16-.29.28-.47.5-.55-3.41-.57-5.08.98-7.42.15-.05-.28-.2-.42-.4-.5,2.71.02,4.89.07,4.69.13,0-.78-2.19-.92-.45-1.99-1.76.58-4.76,1.86-6.9,1.49-.1-.08-.2-.15-.28-.27l.22-.09c-.49-.08-.93,0-1.35.12-.68-.13-1.11-.22-1.77-.24-.25-.64-2.51-.35-3.6-.38.09.85-1.34.71,0,1.42-.17-.06.21-.1.93-.14.16-.02.36-.04.47-.09-.02.02-.05.05-.07.07.72-.01,1.65-.03,2.71-.05-.86.43-1.76.79-2.97.32-.56.55-1.18,1.11-1.53,1.37-1.49-1.19-4.37-1.83-4.77-2.57-3.33.47-7.85.31-9.95,1.91-.95.2-1.09-.46-1.44-.71.55-.16,1.2-.13,1.49-.36-1.9.41-5.62.15-6.07,1.27-2.39-.51,1.34-1.03-1.94-.85l.44-.34c-6.46-1.8-10.5,2.83-17.66.53.5.14.74.21.84.39-8.16-1.03-16.82.92-24.88-.7-2.29-.33-2.54.38-3.94.92l-.49-.92-2.39,1.05c-3.39.76-5.86-2.26-10.15-.81l.55.62c-1.54-.12-4.88.35-4.62-.36-.16.11-.51.64-1.11.32l-.05-.48-3.79.81c-2.93-.35.46-1.9-3.82-2-1.59.18-4.54,1.38-3.94,1.7.64.03,1.64.3,1.69.78l-1.46.25c-.27,1.41-1.39,2.85,2.18,3.84l2.49-.86.8.69-2.1.04c1.19.65,1.94.08,2.79-.31.2.36.55.62,1.04.76l2.45-1.34c.29.55-1.1,1.09.54,1.4,1.15-.62-1.09-1.24.8-1.64,1.19.64.84,1.17,2.24.62.2.36-.1.59-.66.75,1.25-.43,3.29-.17,3.94-.92,1.24.79,4.2-.19,4.08,1.14.39-.32,2.19-1.04,3.34-1.09-2.09,1.59,4.28.11,3.72,1.82,1.55-1.43,5.58-.62,8.32-1.41-.15.11-.45.34-.7.27,1.54.12,1.99.56,2.98.83.2-1.19,2.6-1.45,3.9-2.18,1.89,1.15-1.15,1.39-.56,2.49-.09-.96,3.28-.95,2.64-1.76,1.44.71,1.24.35,1.99,1.33.26-1.48,1.35-.25,2.55-1.16,2.09.74.54,1.39,2.83.94,1.09.46-.95.98-.95.98Zm54.61-2.49v.02c-.47.02-.87.04-1.13.05.23-.01.56-.03,1.13-.06Zm4.59,0c-.56-.03-1.25-.04-1.99-.04-.16-.29.01-.6.48-.58-.25.2.83.37,1.52.62Zm-9.7-5.91c.73-.12.97.05,1.07.22-.34.01-.74.04-1.27.1-.02.03-.06.07-.09.1.07-.16.15-.31.29-.43Z"/>
        <path class="cls-1" d="m105.62,468.71c-.1.02-.16.05-.3.06.15.08.29.14.43.19.09-.09.18-.18.26-.27-.13,0-.27,0-.39.01Z"/>
        <path class="cls-1" d="m521.55,468.07l-.1-.02c.08.03.15.07.2.12-.07-.04-.07-.07-.11-.1Z"/>
        <polygon class="cls-1" points="179.99 475.11 179.99 474.89 179.59 475.08 179.99 475.11"/>
        <path class="cls-1" d="m546.85,470.73c.05.07.14.15.33.21-.02-.06-.16-.13-.33-.21Z"/>
        <path class="cls-1" d="m557.77,470.81l1.55.29c-.67-.17-1.16-.24-1.55-.29Z"/>
        <path class="cls-1" d="m566.17,471.14c.1-.15.13-.26.16-.37h-.02s-.14.37-.14.37Z"/>
        <path class="cls-1" d="m432.72,473.38c-.11,0-.22.02-.32.04-.76.17-.24.1.32-.04Z"/>
        <path class="cls-1" d="m472.42,471.07c-.42.16-.83.31-1.27.41.71.06,1.26.07,1.27-.41Z"/>
        <path class="cls-1" d="m388.38,474.72s0,0,0-.01c-.1,0-.18,0-.27,0h.27Z"/>
        <path class="cls-1" d="m469.3,471.49c.71.16,1.3.12,1.85,0-.58-.05-1.26-.13-1.85,0Z"/>
        <path class="cls-1" d="m602.55,471.11l.4.03c0-.06.02-.1.05-.14l-.45.11Z"/>
        <path class="cls-1" d="m603,471l.45-.11c-.21,0-.39.01-.45.11Z"/>
        <path class="cls-1" d="m604.39,470.67l-.94.23c.33,0,.73.02.94-.23Z"/>
        <path class="cls-1" d="m591.43,470.84l-.12.31c.07-.06.11-.16.12-.31Z"/>
        <path class="cls-1" d="m588.06,470.97c.81.06,2.03.63,3.15.43l.1-.25c-.52.47-2.49-.71-3.25-.18Z"/>
        <path class="cls-1" d="m573.92,467.32l2.83.21c-.5-.32-1.15-.76.13-.85-3.58-.94.74.73-2.96.64Z"/>
        <path class="cls-1" d="m565.15,466.94c1.52-.17-.02-.48.06-.66-.96.31-1.19.39-.06.66Z"/>
        <path class="cls-1" d="m501.75,467.59l.15-.78c-1.17.12,0,.3-.15.78Z"/>
        <polygon class="cls-1" points="489.67 471.7 490.81 472.17 491.35 471.46 489.67 471.7"/>
        <polygon class="cls-1" points="482.46 466.24 482.97 466.13 481.02 466.43 482.46 466.24"/>
        <path class="cls-1" d="m375.99,467.32l.36.95c.79-.18.95-1.25-.36-.95Z"/>
        <path class="cls-1" d="m330.03,468.55c-.5-.47-1.8-.77-2.59-.3,1.03.06,2.07.43,2.59.3Z"/>
        <polygon class="cls-1" points="192.17 467.44 193.1 467.12 191.36 467.39 192.17 467.44"/>
      </g>
    </g>
  </g>
</svg>